<svg width="319" height="67" viewBox="0 0 319 67" version="1.1" xmlns="http://www.w3.org/2000/svg" xmlns:xlink="http://www.w3.org/1999/xlink">
<title>logo_v2</title>
<desc>Created using Figma</desc>
<g id="Canvas" transform="translate(-991 1848)">
<g id="logo_v2">
<g id="office unbound">
<use xlink:href="#path0_fill" transform="translate(1046.81 -1844.97)" fill="#A8A8A8"/>
</g>
<g id="Vector">
<use xlink:href="#path1_fill" transform="translate(991.488 -1847.4)" fill="url(#paint1_linear)"/>
</g>
<g id="Vector">
<use xlink:href="#path2_fill" transform="translate(992.498 -1846.36)" fill="#4D8AF0"/>
</g>
<g id="Vector">
<use xlink:href="#path3_fill" transform="translate(1006.51 -1793.1)" fill="url(#paint3_linear)"/>
</g>
<g id="Vector">
<use xlink:href="#path4_fill" transform="translate(1006.9 -1793.1)" fill="#4085CC"/>
</g>
<g id="Vector">
<use xlink:href="#path5_stroke" transform="translate(1019.52 -1802.92)" fill="#AD7676"/>
</g>
<g id="Vector">
<use xlink:href="#path6_stroke" transform="translate(1006.5 -1802.92)" fill="#AD7676"/>
</g>
<g id="Group" opacity="0.2">
<g id="Vector" opacity="0.2">
<use xlink:href="#path7_fill" transform="translate(1009.88 -1792.17)" fill="#FFFFFF"/>
</g>
<g id="Vector" opacity="0.2">
<use xlink:href="#path8_fill" transform="translate(1009.61 -1793.25)" fill="#FFFFFF"/>
</g>
<g id="Vector" opacity="0.2">
<use xlink:href="#path9_fill" transform="translate(1011.93 -1792.81)" fill="#FFFFFF"/>
</g>
</g>
<g id="Vector">
<use xlink:href="#path10_fill" transform="translate(1010.67 -1803.58)" fill="#4D8AF0"/>
</g>
<g id="Group" opacity="0.2">
<g id="Vector" opacity="0.2">
<use xlink:href="#path11_fill" transform="translate(1013.2 -1846.43)"/>
</g>
</g>
<g id="Group" opacity="0.2">
<g id="Vector" opacity="0.2">
<use xlink:href="#path12_fill" transform="translate(992.801 -1846.35)" fill="#FFFFFF"/>
</g>
</g>
<g id="Vector">
<use xlink:href="#path13_fill" transform="translate(1006.42 -1807.27)" fill="#4D8AF0"/>
</g>
<g id="Vector" opacity="0.2">
<use xlink:href="#path14_fill" transform="translate(999.188 -1846.13)" fill="#FFFFFF"/>
</g>
<g id="Vector" opacity="0.2">
<use xlink:href="#path15_fill" transform="translate(1015.21 -1846.27)" fill="#FFFFFF"/>
</g>
</g>
</g>
<defs>
<linearGradient id="paint1_linear" x1="0" y1="0" x2="1" y2="0" gradientUnits="userSpaceOnUse" gradientTransform="matrix(0 -3717.19 3713.67 0 2410.65 24614.9)">
<stop offset="0" stop-color="#808080" stop-opacity="0.25"/>
<stop offset="0.54" stop-color="#808080" stop-opacity="0.12"/>
<stop offset="1" stop-color="#808080" stop-opacity="0.1"/>
</linearGradient>
<linearGradient id="paint3_linear" x1="0" y1="0" x2="1" y2="0" gradientUnits="userSpaceOnUse" gradientTransform="matrix(0 -245.884 292.157 0 1005.98 6581.71)">
<stop offset="0" stop-color="#808080" stop-opacity="0.25"/>
<stop offset="0.54" stop-color="#808080" stop-opacity="0.12"/>
<stop offset="1" stop-color="#808080" stop-opacity="0.1"/>
</linearGradient>
<path id="path0_fill" d="M 11.45 24.75C 12.75 24.75 13.8667 24.95 14.8 25.35C 15.7333 25.75 16.5 26.3167 17.1 27.05C 17.7 27.75 18.1667 28.5833 18.5 29.55C 18.8667 30.5167 19.1333 31.55 19.3 32.65L 19.6 32.65C 21 32.65 22.2833 32.3667 23.45 31.8C 24.6167 31.2333 25.6167 30.5167 26.45 29.65L 27.2 31C 26.5333 32.0667 25.4667 32.95 24 33.65C 22.5667 34.35 21.0833 34.8333 19.55 35.1C 19.55 35.4333 19.55 35.7667 19.55 36.1C 19.5833 36.4333 19.6 36.7833 19.6 37.15C 19.6 41.25 18.85 44.4667 17.35 46.8C 15.85 49.1333 13.75 50.3 11.05 50.3C 9.95 50.3 8.83333 50.1 7.7 49.7C 6.6 49.3 5.6 48.6333 4.7 47.7C 3.8 46.7667 3.06667 45.5667 2.5 44.1C 1.96667 42.6333 1.7 40.8167 1.7 38.65C 1.7 37.1833 1.85 35.6333 2.15 34C 2.48333 32.3667 3.01667 30.8667 3.75 29.5C 4.51667 28.1333 5.51667 27 6.75 26.1C 8.01667 25.2 9.58333 24.75 11.45 24.75ZM 11.95 46.5C 13.7167 46.5 15.0167 45.6333 15.85 43.9C 16.6833 42.1333 17.1 39.65 17.1 36.45C 17.1 36.25 17.1 36.05 17.1 35.85C 17.1 35.65 17.0833 35.45 17.05 35.25C 16.0833 35.1833 15.3833 34.9667 14.95 34.6C 14.55 34.2333 14.35 33.6167 14.35 32.75C 14.35 31.9833 14.5167 31.45 14.85 31.15C 15.1833 30.8167 15.6833 30.6333 16.35 30.6C 15.95 29.4333 15.4333 28.6333 14.8 28.2C 14.2 27.7333 13.5167 27.5 12.75 27.5C 11.7167 27.5 10.8333 27.85 10.1 28.55C 9.4 29.2167 8.81667 30.0833 8.35 31.15C 7.91667 32.2167 7.6 33.4 7.4 34.7C 7.2 35.9667 7.1 37.2167 7.1 38.45C 7.1 40.0833 7.25 41.4167 7.55 42.45C 7.85 43.4833 8.23333 44.3 8.7 44.9C 9.16667 45.5 9.68333 45.9167 10.25 46.15C 10.8167 46.3833 11.3833 46.5 11.95 46.5ZM 40.4973 25L 44.5473 25L 44.5473 26.75L 40.4973 26.75L 40.4973 54C 40.4973 55.7667 40.2806 57.2 39.8473 58.3C 39.4139 59.4 38.8473 60.2667 38.1473 60.9C 37.4806 61.5333 36.7306 61.95 35.8973 62.15C 35.0639 62.3833 34.2473 62.5 33.4473 62.5C 31.9806 62.5 30.7806 62.2 29.8473 61.6C 28.9473 61.0333 28.1473 60.25 27.4473 59.25C 26.8806 60.4833 26.1306 61.3333 25.1973 61.8C 24.2639 62.2667 23.2139 62.5 22.0473 62.5C 20.2139 62.5 18.8806 62.0667 18.0473 61.2C 17.1806 60.3667 16.7473 59.3167 16.7473 58.05C 16.7473 56.45 17.3639 55.05 18.5973 53.85C 19.7973 52.65 21.3473 51.6167 23.2473 50.75L 23.2473 21.2C 23.2473 18.3 23.9473 16.1333 25.3473 14.7C 26.7473 13.2333 28.5639 12.5 30.7973 12.5C 32.1639 12.5 33.3639 12.8167 34.3973 13.45C 35.4639 14.05 36.2639 15.1167 36.7973 16.65C 37.4639 15.4833 38.4306 14.5167 39.6973 13.75C 40.9639 12.95 42.5973 12.55 44.5973 12.55C 45.8973 12.55 47.0139 12.7167 47.9473 13.05C 48.8806 13.3833 49.6639 13.85 50.2973 14.45C 50.9306 15.0167 51.3973 15.6667 51.6973 16.4C 51.9973 17.1333 52.1473 17.9 52.1473 18.7C 52.1473 19.8667 51.8806 20.6833 51.3473 21.15C 50.8139 21.5833 50.2306 21.8 49.5973 21.8C 48.9306 21.8 48.3306 21.6 47.7973 21.2C 47.2639 20.7667 46.9973 20.2 46.9973 19.5C 46.9973 19.0333 47.1139 18.55 47.3473 18.05C 47.6139 17.55 47.9639 17.2667 48.3973 17.2C 48.1973 16.2667 47.7473 15.6333 47.0473 15.3C 46.3806 14.9667 45.6806 14.8 44.9473 14.8C 44.0473 14.8 43.2973 15.0167 42.6973 15.45C 42.1306 15.85 41.6806 16.4167 41.3473 17.15C 41.0139 17.85 40.7806 18.6833 40.6473 19.65C 40.5473 20.5833 40.4973 21.5667 40.4973 22.6L 40.4973 25ZM 28.2473 48.95C 29.4473 48.5833 30.6639 48.2667 31.8973 48C 33.1306 47.7333 34.3306 47.4833 35.4973 47.25L 35.4973 26.75L 28.2473 26.75L 28.2473 48.95ZM 52.2473 25L 52.2473 42C 52.2473 42.3333 52.2639 42.75 52.2973 43.25C 52.3306 43.75 52.4139 44.25 52.5473 44.75C 52.7139 45.2167 52.9473 45.6333 53.2473 46C 53.5473 46.3333 53.9639 46.5 54.4973 46.5C 56.1306 46.5 57.3306 44.6833 58.0973 41.05L 59.9473 41.05C 59.5806 43.15 59.1139 44.8167 58.5473 46.05C 57.9806 47.25 57.3806 48.1667 56.7473 48.8C 56.1139 49.4333 55.4639 49.8333 54.7973 50C 54.1306 50.2 53.5306 50.3 52.9973 50.3C 51.8306 50.3 50.8806 50.0833 50.1473 49.65C 49.4139 49.1833 48.8306 48.6 48.3973 47.9C 47.9639 47.2 47.6639 46.4167 47.4973 45.55C 47.3306 44.6833 47.2473 43.85 47.2473 43.05L 47.2473 25L 52.2473 25ZM 35.4973 48.9C 34.0973 49.1667 32.7973 49.45 31.5973 49.75C 30.3973 50.0167 29.2806 50.3 28.2473 50.6L 28.2473 54C 28.2473 55.4 28.1473 56.6 27.9473 57.6C 29.1473 59.1333 30.5306 59.9 32.0973 59.9C 32.5306 59.9 32.9473 59.8333 33.3473 59.7C 33.7806 59.5667 34.1473 59.2833 34.4473 58.85C 34.7806 58.45 35.0306 57.8667 35.1973 57.1C 35.3973 56.3333 35.4973 55.3333 35.4973 54.1L 35.4973 48.9ZM 28.2473 25L 35.4973 25L 35.4973 21.2C 35.4973 19.1 35.1973 17.6667 34.5973 16.9C 34.0306 16.1 33.1806 15.7 32.0473 15.7C 31.2139 15.7 30.5473 15.8667 30.0473 16.2C 29.5473 16.5333 29.1639 17.0167 28.8973 17.65C 28.6306 18.25 28.4473 18.9833 28.3473 19.85C 28.2806 20.6833 28.2473 21.6 28.2473 22.6L 28.2473 25ZM 20.9973 59.9C 21.9639 59.9 22.5806 59.3833 22.8473 58.35C 23.1139 57.3167 23.2473 55.9 23.2473 54.1L 23.2473 52.6C 21.7139 53.3667 20.5806 54.1667 19.8473 55C 19.0806 55.8667 18.6973 56.7 18.6973 57.5C 18.6973 58.1667 18.9139 58.7333 19.3473 59.2C 19.7806 59.6667 20.3306 59.9 20.9973 59.9ZM 69.4117 32.65C 69.6784 32.4167 69.8784 32.05 70.0117 31.55C 70.1784 31.0167 70.2617 30.5167 70.2617 30.05C 70.2617 29.2833 70.0117 28.65 69.5117 28.15C 69.0451 27.65 68.3784 27.4 67.5117 27.4C 66.6117 27.4 65.8617 27.7333 65.2617 28.4C 64.6617 29.0667 64.1784 29.9167 63.8117 30.95C 63.4451 31.95 63.1784 33.0833 63.0117 34.35C 62.8784 35.5833 62.8117 36.8 62.8117 38C 62.8117 39.7667 62.9617 41.2 63.2617 42.3C 63.5951 43.4 64.0284 44.2667 64.5617 44.9C 65.0951 45.5 65.7117 45.9167 66.4117 46.15C 67.1451 46.3833 67.9117 46.5 68.7117 46.5C 70.4784 46.5 71.9617 46.0667 73.1617 45.2C 74.3951 44.3 75.4451 42.9167 76.3117 41.05L 78.0117 41.05C 77.6117 42.2833 77.0451 43.4667 76.3117 44.6C 75.5784 45.7 74.7284 46.6833 73.7617 47.55C 72.7951 48.3833 71.7451 49.05 70.6117 49.55C 69.4784 50.05 68.2951 50.3 67.0617 50.3C 65.8951 50.3 64.7451 50.1 63.6117 49.7C 62.4784 49.3 61.4617 48.65 60.5617 47.75C 59.6617 46.8167 58.9284 45.6167 58.3617 44.15C 57.7951 42.65 57.5117 40.8167 57.5117 38.65C 57.5117 37.25 57.6284 35.75 57.8617 34.15C 58.1284 32.5167 58.5951 31.0167 59.2617 29.65C 59.9617 28.25 60.9117 27.0833 62.1117 26.15C 63.3117 25.2167 64.8617 24.75 66.7617 24.75C 68.8617 24.75 70.4617 25.2667 71.5617 26.3C 72.6617 27.3 73.2117 28.7833 73.2117 30.75C 73.2117 31.5833 73.0451 32.2833 72.7117 32.85C 72.4117 33.4167 71.9284 33.7 71.2617 33.7C 70.5284 33.7 69.9117 33.35 69.4117 32.65ZM 91.9246 31.25C 91.9246 33.5833 90.9579 35.5333 89.0246 37.1C 87.1246 38.6667 84.4746 39.6333 81.0746 40C 81.2079 41.3333 81.4413 42.4167 81.7746 43.25C 82.1413 44.0833 82.5746 44.75 83.0746 45.25C 83.5746 45.7167 84.1413 46.05 84.7746 46.25C 85.4413 46.4167 86.1246 46.5 86.8246 46.5C 87.8913 46.5 88.8913 46.3167 89.8246 45.95C 90.7913 45.5833 91.5913 44.95 92.2246 44.05C 92.2579 44.2833 92.2746 44.5167 92.2746 44.75C 92.3079 44.95 92.3246 45.1333 92.3246 45.3C 92.3246 46.0667 92.1246 46.75 91.7246 47.35C 91.3579 47.95 90.8413 48.4833 90.1746 48.95C 89.5413 49.3833 88.7913 49.7167 87.9246 49.95C 87.0913 50.1833 86.2079 50.3 85.2746 50.3C 84.1413 50.3 83.0079 50.1 81.8746 49.7C 80.7413 49.2667 79.7079 48.6 78.7746 47.7C 77.8746 46.7667 77.1413 45.5667 76.5746 44.1C 76.0079 42.6333 75.7246 40.85 75.7246 38.75C 75.7246 37.35 75.8746 35.8333 76.1746 34.2C 76.5079 32.5667 77.0413 31.05 77.7746 29.65C 78.5413 28.25 79.5246 27.0833 80.7246 26.15C 81.9579 25.2167 83.4746 24.75 85.2746 24.75C 86.1079 24.75 86.9079 24.85 87.6746 25.05C 88.4746 25.2167 89.1913 25.55 89.8246 26.05C 90.4579 26.5167 90.9579 27.1667 91.3246 28C 91.7246 28.8333 91.9246 29.9167 91.9246 31.25ZM 81.0246 38.05C 83.3913 37.6833 85.2579 36.85 86.6246 35.55C 88.0246 34.25 88.7246 32.65 88.7246 30.75C 88.7246 29.4833 88.5079 28.5833 88.0746 28.05C 87.6413 27.4833 87.0246 27.2 86.2246 27.2C 85.3579 27.2 84.5913 27.5333 83.9246 28.2C 83.2913 28.8667 82.7579 29.7333 82.3246 30.8C 81.8913 31.8333 81.5579 33 81.3246 34.3C 81.1246 35.5667 81.0246 36.8167 81.0246 38.05ZM 123.399 25L 123.399 42C 123.399 42.3333 123.416 42.75 123.449 43.25C 123.483 43.75 123.566 44.25 123.699 44.75C 123.866 45.2167 124.099 45.6333 124.399 46C 124.699 46.3333 125.116 46.5 125.649 46.5C 127.283 46.5 128.483 44.6833 129.249 41.05L 131.099 41.05C 130.733 43.15 130.266 44.8167 129.699 46.05C 129.133 47.25 128.533 48.1667 127.899 48.8C 127.266 49.4333 126.616 49.8333 125.949 50C 125.283 50.2 124.683 50.3 124.149 50.3C 123.383 50.3 122.716 50.1667 122.149 49.9C 121.616 49.6333 121.149 49.2833 120.749 48.85C 120.383 48.4167 120.083 47.9167 119.849 47.35C 119.616 46.7833 119.433 46.2 119.299 45.6C 118.666 47.2333 117.833 48.4333 116.799 49.2C 115.766 49.9333 114.683 50.3 113.549 50.3C 112.583 50.3 111.666 50.1667 110.799 49.9C 109.933 49.6333 109.183 49.2 108.549 48.6C 107.916 47.9667 107.416 47.1667 107.049 46.2C 106.683 45.2 106.499 43.9833 106.499 42.55L 106.499 25L 111.499 25L 111.499 42C 111.499 43.6333 111.783 44.8 112.349 45.5C 112.916 46.1667 113.633 46.5 114.499 46.5C 114.966 46.5 115.433 46.3833 115.899 46.15C 116.366 45.8833 116.783 45.5167 117.149 45.05C 117.516 44.5833 117.816 44.0167 118.049 43.35C 118.283 42.6833 118.399 41.9167 118.399 41.05L 118.399 25L 123.399 25ZM 134.204 25L 134.204 28.8C 134.704 27.9 135.204 27.1833 135.704 26.65C 136.238 26.0833 136.771 25.6667 137.304 25.4C 137.838 25.1333 138.338 24.9667 138.804 24.9C 139.304 24.8 139.771 24.75 140.204 24.75C 141.704 24.75 142.904 25.0333 143.804 25.6C 144.738 26.1667 145.438 26.9 145.904 27.8C 146.371 28.6667 146.671 29.6333 146.804 30.7C 146.971 31.7333 147.054 32.7333 147.054 33.7C 147.054 34.3 147.038 34.9667 147.004 35.7C 146.971 36.4 146.938 37.1333 146.904 37.9C 146.871 38.6333 146.838 39.3833 146.804 40.15C 146.771 40.8833 146.754 41.5667 146.754 42.2C 146.754 42.4667 146.771 42.85 146.804 43.35C 146.838 43.8167 146.921 44.2833 147.054 44.75C 147.188 45.2167 147.404 45.6333 147.704 46C 148.004 46.3333 148.438 46.5 149.004 46.5C 149.771 46.5 150.454 46.0667 151.054 45.2C 151.688 44.3333 152.204 42.95 152.604 41.05L 154.454 41.05C 154.088 43.15 153.621 44.8167 153.054 46.05C 152.488 47.25 151.888 48.1667 151.254 48.8C 150.621 49.4333 149.988 49.8333 149.354 50C 148.721 50.2 148.138 50.3 147.604 50.3C 146.538 50.3 145.638 50.1 144.904 49.7C 144.171 49.2667 143.571 48.7 143.104 48C 142.638 47.3 142.288 46.4833 142.054 45.55C 141.854 44.6167 141.754 43.65 141.754 42.65C 141.754 42.35 141.754 41.8 141.754 41C 141.788 40.1667 141.804 39.2833 141.804 38.35C 141.838 37.4167 141.854 36.5333 141.854 35.7C 141.888 34.8667 141.904 34.2833 141.904 33.95C 141.904 32.8833 141.821 32 141.654 31.3C 141.488 30.6 141.254 30.05 140.954 29.65C 140.654 29.25 140.304 28.9667 139.904 28.8C 139.538 28.6333 139.138 28.55 138.704 28.55C 137.671 28.55 136.771 28.9667 136.004 29.8C 135.271 30.6333 134.671 32.0333 134.204 34L 134.204 50L 129.204 50L 129.204 25L 134.204 25ZM 152.594 15.7L 157.594 15L 157.594 26.85C 158.161 26.2833 158.827 25.8167 159.594 25.45C 160.361 25.0833 161.277 24.9 162.344 24.9C 163.244 24.9 164.177 25.0667 165.144 25.4C 166.111 25.7 167.011 26.25 167.844 27.05C 168.677 27.85 169.361 28.95 169.894 30.35C 170.427 31.75 170.694 33.5333 170.694 35.7C 170.694 37.6 170.461 39.4333 169.994 41.2C 169.561 42.9667 168.877 44.5333 167.944 45.9C 167.044 47.2333 165.911 48.3 164.544 49.1C 163.177 49.9 161.577 50.3 159.744 50.3C 158.711 50.3 157.744 50.15 156.844 49.85C 155.977 49.5167 155.227 49 154.594 48.3C 153.961 47.5667 153.461 46.6167 153.094 45.45C 152.727 44.25 152.544 42.7833 152.544 41.05L 152.594 15.7ZM 166.244 36.85C 166.244 35.55 166.127 34.3333 165.894 33.2C 165.661 32.0667 165.311 31.0833 164.844 30.25C 164.411 29.3833 163.861 28.7167 163.194 28.25C 162.561 27.75 161.827 27.5 160.994 27.5C 160.327 27.5 159.711 27.6667 159.144 28C 158.577 28.3 158.061 28.7 157.594 29.2L 157.594 42.35C 157.594 45.35 158.577 46.85 160.544 46.85C 161.477 46.85 162.294 46.5833 162.994 46.05C 163.727 45.4833 164.327 44.7333 164.794 43.8C 165.294 42.8667 165.661 41.8 165.894 40.6C 166.127 39.4 166.244 38.15 166.244 36.85ZM 182.593 24.75C 183.893 24.75 185.009 24.95 185.943 25.35C 186.876 25.75 187.643 26.3167 188.243 27.05C 188.843 27.75 189.309 28.5833 189.643 29.55C 190.009 30.5167 190.276 31.55 190.443 32.65L 190.743 32.65C 192.143 32.65 193.426 32.3667 194.593 31.8C 195.759 31.2333 196.759 30.5167 197.593 29.65L 198.343 31C 197.676 32.0667 196.609 32.95 195.143 33.65C 193.709 34.35 192.226 34.8333 190.693 35.1C 190.693 35.4333 190.693 35.7667 190.693 36.1C 190.726 36.4333 190.743 36.7833 190.743 37.15C 190.743 41.25 189.993 44.4667 188.493 46.8C 186.993 49.1333 184.893 50.3 182.193 50.3C 181.093 50.3 179.976 50.1 178.843 49.7C 177.743 49.3 176.743 48.6333 175.843 47.7C 174.943 46.7667 174.209 45.5667 173.643 44.1C 173.109 42.6333 172.843 40.8167 172.843 38.65C 172.843 37.1833 172.993 35.6333 173.293 34C 173.626 32.3667 174.159 30.8667 174.893 29.5C 175.659 28.1333 176.659 27 177.893 26.1C 179.159 25.2 180.726 24.75 182.593 24.75ZM 183.093 46.5C 184.859 46.5 186.159 45.6333 186.993 43.9C 187.826 42.1333 188.243 39.65 188.243 36.45C 188.243 36.25 188.243 36.05 188.243 35.85C 188.243 35.65 188.226 35.45 188.193 35.25C 187.226 35.1833 186.526 34.9667 186.093 34.6C 185.693 34.2333 185.493 33.6167 185.493 32.75C 185.493 31.9833 185.659 31.45 185.993 31.15C 186.326 30.8167 186.826 30.6333 187.493 30.6C 187.093 29.4333 186.576 28.6333 185.943 28.2C 185.343 27.7333 184.659 27.5 183.893 27.5C 182.859 27.5 181.976 27.85 181.243 28.55C 180.543 29.2167 179.959 30.0833 179.493 31.15C 179.059 32.2167 178.743 33.4 178.543 34.7C 178.343 35.9667 178.243 37.2167 178.243 38.45C 178.243 40.0833 178.393 41.4167 178.693 42.45C 178.993 43.4833 179.376 44.3 179.843 44.9C 180.309 45.5 180.826 45.9167 181.393 46.15C 181.959 46.3833 182.526 46.5 183.093 46.5ZM 211.29 25L 211.29 42C 211.29 42.3333 211.307 42.75 211.34 43.25C 211.373 43.75 211.457 44.25 211.59 44.75C 211.757 45.2167 211.99 45.6333 212.29 46C 212.59 46.3333 213.007 46.5 213.54 46.5C 215.173 46.5 216.373 44.6833 217.14 41.05L 218.99 41.05C 218.623 43.15 218.157 44.8167 217.59 46.05C 217.023 47.25 216.423 48.1667 215.79 48.8C 215.157 49.4333 214.507 49.8333 213.84 50C 213.173 50.2 212.573 50.3 212.04 50.3C 211.273 50.3 210.607 50.1667 210.04 49.9C 209.507 49.6333 209.04 49.2833 208.64 48.85C 208.273 48.4167 207.973 47.9167 207.74 47.35C 207.507 46.7833 207.323 46.2 207.19 45.6C 206.557 47.2333 205.723 48.4333 204.69 49.2C 203.657 49.9333 202.573 50.3 201.44 50.3C 200.473 50.3 199.557 50.1667 198.69 49.9C 197.823 49.6333 197.073 49.2 196.44 48.6C 195.807 47.9667 195.307 47.1667 194.94 46.2C 194.573 45.2 194.39 43.9833 194.39 42.55L 194.39 25L 199.39 25L 199.39 42C 199.39 43.6333 199.673 44.8 200.24 45.5C 200.807 46.1667 201.523 46.5 202.39 46.5C 202.857 46.5 203.323 46.3833 203.79 46.15C 204.257 45.8833 204.673 45.5167 205.04 45.05C 205.407 44.5833 205.707 44.0167 205.94 43.35C 206.173 42.6833 206.29 41.9167 206.29 41.05L 206.29 25L 211.29 25ZM 222.095 25L 222.095 28.8C 222.595 27.9 223.095 27.1833 223.595 26.65C 224.128 26.0833 224.662 25.6667 225.195 25.4C 225.728 25.1333 226.228 24.9667 226.695 24.9C 227.195 24.8 227.662 24.75 228.095 24.75C 229.595 24.75 230.795 25.0333 231.695 25.6C 232.628 26.1667 233.328 26.9 233.795 27.8C 234.262 28.6667 234.562 29.6333 234.695 30.7C 234.862 31.7333 234.945 32.7333 234.945 33.7C 234.945 34.3 234.928 34.9667 234.895 35.7C 234.862 36.4 234.828 37.1333 234.795 37.9C 234.762 38.6333 234.728 39.3833 234.695 40.15C 234.662 40.8833 234.645 41.5667 234.645 42.2C 234.645 42.4667 234.662 42.85 234.695 43.35C 234.728 43.8167 234.812 44.2833 234.945 44.75C 235.078 45.2167 235.295 45.6333 235.595 46C 235.895 46.3333 236.328 46.5 236.895 46.5C 237.662 46.5 238.345 46.0667 238.945 45.2C 239.578 44.3333 240.095 42.95 240.495 41.05L 242.345 41.05C 241.978 43.15 241.512 44.8167 240.945 46.05C 240.378 47.25 239.778 48.1667 239.145 48.8C 238.512 49.4333 237.878 49.8333 237.245 50C 236.612 50.2 236.028 50.3 235.495 50.3C 234.428 50.3 233.528 50.1 232.795 49.7C 232.062 49.2667 231.462 48.7 230.995 48C 230.528 47.3 230.178 46.4833 229.945 45.55C 229.745 44.6167 229.645 43.65 229.645 42.65C 229.645 42.35 229.645 41.8 229.645 41C 229.678 40.1667 229.695 39.2833 229.695 38.35C 229.728 37.4167 229.745 36.5333 229.745 35.7C 229.778 34.8667 229.795 34.2833 229.795 33.95C 229.795 32.8833 229.712 32 229.545 31.3C 229.378 30.6 229.145 30.05 228.845 29.65C 228.545 29.25 228.195 28.9667 227.795 28.8C 227.428 28.6333 227.028 28.55 226.595 28.55C 225.562 28.55 224.662 28.9667 223.895 29.8C 223.162 30.6333 222.562 32.0333 222.095 34L 222.095 50L 217.095 50L 217.095 25L 222.095 25ZM 258.885 15L 258.885 42C 258.885 42.4 258.901 42.8667 258.935 43.4C 258.968 43.9 259.051 44.3833 259.185 44.85C 259.351 45.3167 259.585 45.7167 259.885 46.05C 260.218 46.35 260.685 46.5 261.285 46.5C 261.551 46.5 261.835 46.4667 262.135 46.4C 262.468 46.3333 262.735 46.2667 262.935 46.2C 262.968 46.3667 262.985 46.5167 262.985 46.65C 263.018 46.7833 263.035 46.9333 263.035 47.1C 263.035 48.1 262.651 48.8833 261.885 49.45C 261.118 50.0167 260.251 50.3 259.285 50.3C 258.251 50.3 257.318 49.95 256.485 49.25C 255.651 48.5167 255.085 47.3 254.785 45.6C 254.285 46.9 253.468 48.0167 252.335 48.95C 251.201 49.85 249.835 50.3 248.235 50.3C 247.235 50.3 246.218 50.1 245.185 49.7C 244.185 49.2667 243.285 48.6 242.485 47.7C 241.685 46.8 241.018 45.6333 240.485 44.2C 239.985 42.7667 239.735 41.0333 239.735 39C 239.735 37.4333 239.901 35.8167 240.235 34.15C 240.601 32.45 241.151 30.9167 241.885 29.55C 242.651 28.15 243.635 27 244.835 26.1C 246.035 25.2 247.468 24.75 249.135 24.75C 250.001 24.75 250.885 24.9333 251.785 25.3C 252.718 25.6667 253.418 26.3667 253.885 27.4L 253.885 15.7L 258.885 15ZM 249.285 46.5C 249.918 46.5 250.518 46.35 251.085 46.05C 251.651 45.75 252.135 45.35 252.535 44.85C 252.968 44.35 253.301 43.7833 253.535 43.15C 253.768 42.4833 253.885 41.7833 253.885 41.05L 253.885 29.65C 253.651 29.0833 253.301 28.5833 252.835 28.15C 252.368 27.7167 251.701 27.5 250.835 27.5C 249.768 27.5 248.868 27.8667 248.135 28.6C 247.401 29.3 246.801 30.2 246.335 31.3C 245.868 32.4 245.518 33.6333 245.285 35C 245.085 36.3333 244.985 37.6167 244.985 38.85C 244.985 41.55 245.401 43.5 246.235 44.7C 247.068 45.9 248.085 46.5 249.285 46.5Z"/>
<path id="path1_fill" d="M 44.0582 22.05C 44.0582 34.2286 33.5956 44.1001 22.4947 44.1001C 11.3938 44.1001 -6.38589e-07 34.2286 -6.38589e-07 22.05C -6.38589e-07 9.87151 11.3991 3.19295e-06 22.4947 3.19295e-06C 33.5903 3.19295e-06 44.0582 9.88197 44.0582 22.05Z"/>
<path id="path2_fill" d="M 42.0023 21.0142C 42.0023 32.6225 32.0628 42.0284 21.4484 42.0284C 10.8341 42.0284 -4.78942e-07 32.6121 -4.78942e-07 21.0142C -4.78942e-07 9.41638 10.8655 -7.02448e-06 21.4484 -7.02448e-06C 32.0314 -7.02448e-06 42.0023 9.41638 42.0023 21.0142Z"/>
<path id="path3_fill" d="M 13.4759 7.66307e-06L 0 7.66307e-06L 0 11.3415L 13.4759 11.3415L 13.4759 7.66307e-06Z"/>
<path id="path4_fill" d="M 12.7697 7.66307e-06L 0 7.66307e-06L 0 10.7504L 12.7697 10.7504L 12.7697 7.66307e-06Z"/>
<path id="path5_stroke" d="M 0.998526 9.87346L 1.53212 0.0542596L -0.464931 -0.0542647L -0.998528 9.76494L 0.998526 9.87346Z"/>
<path id="path6_stroke" d="M 1.71923 9.74588L 0.997307 -0.0733264L -0.997309 0.0733213L -0.275384 9.89253L 1.71923 9.74588Z"/>
<path id="path7_fill" d="M 0.0288246 -8.94025e-06C 0.00691527 0.0764289 -0.00192954 0.156024 0.00266638 0.235407C -0.000890923 0.263194 -0.000890923 0.291339 0.00266638 0.319126C 0.0479678 0.218966 0.0572113 0.106191 0.0288246 -8.94025e-06L 0.0288246 -8.94025e-06Z"/>
<path id="path8_fill" d="M 0.0135804 -7.66307e-06C -0.00452509 0.128397 -0.00452509 0.258701 0.0135804 0.387105C 0.0312155 0.258668 0.0312155 0.128429 0.0135804 -7.66307e-06L 0.0135804 -7.66307e-06Z"/>
<path id="path9_fill" d="M 6.10352e-07 0.125553C 6.10352e-07 0.0993964 6.10352e-07 0.0680225 6.10352e-07 0.0418659L 6.10352e-07 6.38589e-06C 6.10352e-07 0.041857 6.10352e-07 0.0837025 6.10352e-07 0.125553Z"/>
<path id="path10_fill" d="M 4.77097 -1.27718e-05L 0 -1.27718e-05L 0 1.62172L 4.77097 1.62172L 4.77097 -1.27718e-05Z"/>
<path id="path11_fill" d="M 0.758544 6.38589e-06C 0.50744 6.38589e-06 0.235409 6.38589e-06 -6.38589e-07 6.38589e-06C 10.3109 0.434206 19.8006 9.6675 19.8006 20.9986C 19.8006 32.3296 10.3162 41.5786 -6.38589e-07 42.0075C 0.251103 42.0075 0.523134 42.0075 0.758544 42.0075C 11.3572 42.0075 21.3124 32.5912 21.3124 20.9933C 21.3124 9.39547 11.3624 6.38589e-06 0.758544 6.38589e-06Z"/>
<path id="path12_fill" d="M 0.894556 21.009C 0.894556 9.56809 11.4514 0.261564 21.9036 -1.91577e-06L 21.4484 -1.91577e-06C 10.8498 -1.91577e-06 4.78942e-07 9.41639 4.78942e-07 21.0142C 4.78942e-07 32.6121 10.8655 42.0285 21.4484 42.0285L 21.9036 42.0285C 11.4618 41.7617 0.894556 32.4551 0.894556 21.009Z"/>
<path id="path13_fill" d="M 13.7061 -6.38589e-06L 0 -6.38589e-06L 0 4.35246L 13.7061 4.35246L 13.7061 -6.38589e-06Z"/>
<path id="path14_fill" d="M 7.2355 1.30784C 7.2355 1.30784 -9.04438 19.4291 7.2355 40.2812L 12.6133 40.2812C 12.6133 40.2812 -2.22796 23.0545 11.9332 5.10871e-06L 9.28095 0.591147L 7.2355 1.30784Z"/>
<path id="path15_fill" d="M 5.3778 1.17181C 5.3778 1.17181 21.6577 19.5704 5.3778 40.4067L 1.43683e-06 40.4067C 1.43683e-06 40.4067 14.8413 23.0178 0.680071 0L 3.33235 0.523132L 5.3778 1.17181Z"/>
</defs>
</svg>
